# xmcd CD database file
#
# Track frame offsets:
#	150
#	11112
#	23764
#	42902
#	52475
#	73021
#	87436
#	105115
#	133742
#	144842
#	152337
#	165166
#	175344
#
# Disc length: 2545 seconds
#
# Revision: 0
# Processed by: cddbd v1.5.2PL0 Copyright (c) Steve Scherf et al.
# Submitted via: CDex 1.70beta2
#
DISCID=a109ef0d
DTITLE=Vários - sambajazz Batida Diferente
DYEAR=2007
DGENRE=Jazz
TTITLE0=Ela é Carioca
TTITLE1=Aboio
TTITLE2=Quintessência
TTITLE3=Upa, Neguinho
TTITLE4=Neurótico
TTITLE5=África
TTITLE6=Primitivo
TTITLE7=Feitiço da Vila
TTITLE8=Coisa No. 7 
TTITLE9=Serelepe
TTITLE10=Meu Fraco é Café Forte
TTITLE11=Bluechanga
TTITLE12=Beco do Gusmão
EXTD=YEAR: 2007
EXTT0=
EXTT1=
EXTT2=
EXTT3=
EXTT4=
EXTT5=
EXTT6=
EXTT7=
EXTT8=
EXTT9=
EXTT10=
EXTT11=
EXTT12=
PLAYORDER=
